<mxfile host="app.diagrams.net" modified="2022-08-30T01:59:42.819Z" agent="5.0 (Macintosh; Intel Mac OS X 10_15_7) AppleWebKit/537.36 (KHTML, like Gecko) Chrome/104.0.0.0 Safari/537.36" etag="Hdu6buJB8Bq7VtuFVmm9" version="20.2.7" type="github">
  <diagram name="Page-1" id="74e2e168-ea6b-b213-b513-2b3c1d86103e">
    <mxGraphModel dx="1442" dy="898" grid="1" gridSize="10" guides="1" tooltips="1" connect="1" arrows="1" fold="1" page="1" pageScale="1" pageWidth="1100" pageHeight="850" background="none" math="0" shadow="0">
      <root>
        <mxCell id="0" />
        <mxCell id="1" parent="0" />
        <mxCell id="77e6c97f196da883-1" value="&lt;span style=&quot;font-size: 8px;&quot;&gt;支付渠道代理开启&lt;/span&gt;" style="swimlane;html=1;childLayout=stackLayout;startSize=20;rounded=0;shadow=0;labelBackgroundColor=none;strokeWidth=1;fontFamily=Verdana;fontSize=8;align=center;fillColor=#dae8fc;strokeColor=#6c8ebf;" parent="1" vertex="1">
          <mxGeometry x="260" y="50" width="480" height="1610" as="geometry" />
        </mxCell>
        <mxCell id="77e6c97f196da883-2" value="告警系统" style="swimlane;html=1;startSize=20;fillColor=#dae8fc;strokeColor=#6c8ebf;" parent="77e6c97f196da883-1" vertex="1">
          <mxGeometry y="20" width="160" height="1590" as="geometry" />
        </mxCell>
        <mxCell id="77e6c97f196da883-9" value="渠道异常告警" style="rounded=1;whiteSpace=wrap;html=1;shadow=0;labelBackgroundColor=none;strokeWidth=1;fontFamily=Verdana;fontSize=8;align=center;fillColor=#d5e8d4;strokeColor=#82b366;" parent="77e6c97f196da883-2" vertex="1">
          <mxGeometry x="20" y="130" width="100" height="50" as="geometry" />
        </mxCell>
        <mxCell id="VxUJkpbcPx27rVq_6zqo-41" style="edgeStyle=orthogonalEdgeStyle;rounded=0;orthogonalLoop=1;jettySize=auto;html=1;entryX=0.5;entryY=0;entryDx=0;entryDy=0;shadow=0;" edge="1" parent="77e6c97f196da883-2" source="VxUJkpbcPx27rVq_6zqo-39" target="77e6c97f196da883-9">
          <mxGeometry relative="1" as="geometry" />
        </mxCell>
        <mxCell id="VxUJkpbcPx27rVq_6zqo-39" value="开始" style="strokeWidth=2;html=1;shape=mxgraph.flowchart.terminator;whiteSpace=wrap;" vertex="1" parent="77e6c97f196da883-2">
          <mxGeometry x="20" y="30" width="100" height="60" as="geometry" />
        </mxCell>
        <mxCell id="VxUJkpbcPx27rVq_6zqo-7" style="edgeStyle=orthogonalEdgeStyle;rounded=0;orthogonalLoop=1;jettySize=auto;html=1;exitX=1;exitY=0.5;exitDx=0;exitDy=0;shadow=0;" edge="1" parent="77e6c97f196da883-1" source="77e6c97f196da883-9">
          <mxGeometry relative="1" as="geometry">
            <mxPoint x="240" y="210" as="targetPoint" />
          </mxGeometry>
        </mxCell>
        <mxCell id="VxUJkpbcPx27rVq_6zqo-11" value="通知" style="edgeLabel;html=1;align=center;verticalAlign=middle;resizable=0;points=[];" vertex="1" connectable="0" parent="VxUJkpbcPx27rVq_6zqo-7">
          <mxGeometry x="-0.2258" relative="1" as="geometry">
            <mxPoint as="offset" />
          </mxGeometry>
        </mxCell>
        <mxCell id="77e6c97f196da883-3" value="开发" style="swimlane;html=1;startSize=20;fillColor=#dae8fc;strokeColor=#6c8ebf;" parent="77e6c97f196da883-1" vertex="1">
          <mxGeometry x="160" y="20" width="160" height="1590" as="geometry" />
        </mxCell>
        <mxCell id="VxUJkpbcPx27rVq_6zqo-15" value="判断是否开启代理" style="rhombus;whiteSpace=wrap;html=1;" vertex="1" parent="77e6c97f196da883-3">
          <mxGeometry x="20" y="190" width="120" height="60" as="geometry" />
        </mxCell>
        <mxCell id="VxUJkpbcPx27rVq_6zqo-62" style="edgeStyle=orthogonalEdgeStyle;rounded=0;orthogonalLoop=1;jettySize=auto;html=1;exitX=0.5;exitY=1;exitDx=0;exitDy=0;entryX=0.5;entryY=0;entryDx=0;entryDy=0;shadow=0;" edge="1" parent="77e6c97f196da883-3" source="VxUJkpbcPx27rVq_6zqo-34" target="VxUJkpbcPx27rVq_6zqo-36">
          <mxGeometry relative="1" as="geometry" />
        </mxCell>
        <mxCell id="VxUJkpbcPx27rVq_6zqo-34" value="提交代理配置" style="rounded=1;whiteSpace=wrap;html=1;" vertex="1" parent="77e6c97f196da883-3">
          <mxGeometry x="20" y="350" width="110" height="60" as="geometry" />
        </mxCell>
        <mxCell id="VxUJkpbcPx27rVq_6zqo-37" value="NO" style="edgeStyle=orthogonalEdgeStyle;rounded=0;orthogonalLoop=1;jettySize=auto;html=1;exitX=1;exitY=0.5;exitDx=0;exitDy=0;entryX=1;entryY=0.5;entryDx=0;entryDy=0;shadow=0;" edge="1" parent="77e6c97f196da883-3" source="VxUJkpbcPx27rVq_6zqo-36" target="VxUJkpbcPx27rVq_6zqo-34">
          <mxGeometry relative="1" as="geometry" />
        </mxCell>
        <mxCell id="VxUJkpbcPx27rVq_6zqo-63" value="YES" style="edgeStyle=orthogonalEdgeStyle;rounded=0;orthogonalLoop=1;jettySize=auto;html=1;exitX=0.5;exitY=1;exitDx=0;exitDy=0;entryX=0.459;entryY=0.013;entryDx=0;entryDy=0;entryPerimeter=0;shadow=0;" edge="1" parent="77e6c97f196da883-3" source="VxUJkpbcPx27rVq_6zqo-36" target="VxUJkpbcPx27rVq_6zqo-43">
          <mxGeometry relative="1" as="geometry" />
        </mxCell>
        <mxCell id="VxUJkpbcPx27rVq_6zqo-36" value="配置 review 通过" style="rhombus;whiteSpace=wrap;html=1;" vertex="1" parent="77e6c97f196da883-3">
          <mxGeometry x="25" y="450" width="100" height="70" as="geometry" />
        </mxCell>
        <mxCell id="VxUJkpbcPx27rVq_6zqo-46" style="edgeStyle=orthogonalEdgeStyle;rounded=0;orthogonalLoop=1;jettySize=auto;html=1;entryX=0.5;entryY=0;entryDx=0;entryDy=0;shadow=0;" edge="1" parent="77e6c97f196da883-3" source="VxUJkpbcPx27rVq_6zqo-43" target="VxUJkpbcPx27rVq_6zqo-44">
          <mxGeometry relative="1" as="geometry" />
        </mxCell>
        <mxCell id="VxUJkpbcPx27rVq_6zqo-43" value="开启代理灰度" style="rounded=1;whiteSpace=wrap;html=1;" vertex="1" parent="77e6c97f196da883-3">
          <mxGeometry x="20" y="610" width="120" height="60" as="geometry" />
        </mxCell>
        <mxCell id="VxUJkpbcPx27rVq_6zqo-54" style="edgeStyle=orthogonalEdgeStyle;rounded=0;orthogonalLoop=1;jettySize=auto;html=1;exitX=0;exitY=0.5;exitDx=0;exitDy=0;shadow=0;entryX=0.456;entryY=-0.038;entryDx=0;entryDy=0;entryPerimeter=0;" edge="1" parent="77e6c97f196da883-3" source="VxUJkpbcPx27rVq_6zqo-44" target="VxUJkpbcPx27rVq_6zqo-53">
          <mxGeometry relative="1" as="geometry">
            <mxPoint x="70" y="880" as="targetPoint" />
          </mxGeometry>
        </mxCell>
        <mxCell id="VxUJkpbcPx27rVq_6zqo-55" value="YES" style="edgeLabel;html=1;align=center;verticalAlign=middle;resizable=0;points=[];" vertex="1" connectable="0" parent="VxUJkpbcPx27rVq_6zqo-54">
          <mxGeometry x="-0.3388" relative="1" as="geometry">
            <mxPoint as="offset" />
          </mxGeometry>
        </mxCell>
        <mxCell id="VxUJkpbcPx27rVq_6zqo-44" value="生效" style="rhombus;whiteSpace=wrap;html=1;" vertex="1" parent="77e6c97f196da883-3">
          <mxGeometry x="40" y="710" width="80" height="60" as="geometry" />
        </mxCell>
        <mxCell id="VxUJkpbcPx27rVq_6zqo-70" style="edgeStyle=orthogonalEdgeStyle;rounded=0;orthogonalLoop=1;jettySize=auto;html=1;exitX=0.5;exitY=1;exitDx=0;exitDy=0;shadow=0;" edge="1" parent="77e6c97f196da883-3" source="VxUJkpbcPx27rVq_6zqo-53" target="VxUJkpbcPx27rVq_6zqo-66">
          <mxGeometry relative="1" as="geometry" />
        </mxCell>
        <mxCell id="VxUJkpbcPx27rVq_6zqo-71" value="持续观察" style="edgeLabel;html=1;align=center;verticalAlign=middle;resizable=0;points=[];" vertex="1" connectable="0" parent="VxUJkpbcPx27rVq_6zqo-70">
          <mxGeometry x="-0.1012" y="1" relative="1" as="geometry">
            <mxPoint as="offset" />
          </mxGeometry>
        </mxCell>
        <mxCell id="VxUJkpbcPx27rVq_6zqo-53" value="提升灰度比例" style="rounded=1;whiteSpace=wrap;html=1;" vertex="1" parent="77e6c97f196da883-3">
          <mxGeometry x="15" y="1050" width="125" height="60" as="geometry" />
        </mxCell>
        <mxCell id="VxUJkpbcPx27rVq_6zqo-57" value="关闭代理，进一步排查" style="rounded=1;whiteSpace=wrap;html=1;" vertex="1" parent="77e6c97f196da883-3">
          <mxGeometry x="30" y="800" width="110" height="50" as="geometry" />
        </mxCell>
        <mxCell id="VxUJkpbcPx27rVq_6zqo-66" value="提升灰度比例直到100%" style="rounded=1;whiteSpace=wrap;html=1;" vertex="1" parent="77e6c97f196da883-3">
          <mxGeometry x="17" y="1175" width="120" height="60" as="geometry" />
        </mxCell>
        <mxCell id="VxUJkpbcPx27rVq_6zqo-78" value="开启成功" style="rounded=1;whiteSpace=wrap;html=1;" vertex="1" parent="77e6c97f196da883-3">
          <mxGeometry x="20" y="1310" width="120" height="60" as="geometry" />
        </mxCell>
        <mxCell id="VxUJkpbcPx27rVq_6zqo-24" value="NO" style="edgeStyle=orthogonalEdgeStyle;rounded=0;orthogonalLoop=1;jettySize=auto;html=1;exitX=1;exitY=0.5;exitDx=0;exitDy=0;entryX=0;entryY=0.5;entryDx=0;entryDy=0;shadow=0;" edge="1" parent="77e6c97f196da883-1" source="VxUJkpbcPx27rVq_6zqo-15" target="VxUJkpbcPx27rVq_6zqo-3">
          <mxGeometry relative="1" as="geometry" />
        </mxCell>
        <mxCell id="VxUJkpbcPx27rVq_6zqo-29" value="通知" style="edgeStyle=orthogonalEdgeStyle;rounded=0;orthogonalLoop=1;jettySize=auto;html=1;exitX=1;exitY=0.25;exitDx=0;exitDy=0;entryX=0.5;entryY=0;entryDx=0;entryDy=0;shadow=0;" edge="1" parent="77e6c97f196da883-1" source="77e6c97f196da883-9" target="VxUJkpbcPx27rVq_6zqo-3">
          <mxGeometry relative="1" as="geometry" />
        </mxCell>
        <mxCell id="VxUJkpbcPx27rVq_6zqo-51" style="edgeStyle=orthogonalEdgeStyle;rounded=0;orthogonalLoop=1;jettySize=auto;html=1;exitX=1;exitY=0.5;exitDx=0;exitDy=0;shadow=0;" edge="1" parent="77e6c97f196da883-1" source="VxUJkpbcPx27rVq_6zqo-44">
          <mxGeometry relative="1" as="geometry">
            <mxPoint x="240" y="820" as="targetPoint" />
          </mxGeometry>
        </mxCell>
        <mxCell id="VxUJkpbcPx27rVq_6zqo-52" value="NO" style="edgeLabel;html=1;align=center;verticalAlign=middle;resizable=0;points=[];" vertex="1" connectable="0" parent="VxUJkpbcPx27rVq_6zqo-51">
          <mxGeometry x="-0.2186" y="2" relative="1" as="geometry">
            <mxPoint x="-2" y="-5" as="offset" />
          </mxGeometry>
        </mxCell>
        <mxCell id="VxUJkpbcPx27rVq_6zqo-1" value="运营" style="swimlane;html=1;startSize=20;fillColor=#dae8fc;strokeColor=#6c8ebf;" vertex="1" parent="77e6c97f196da883-1">
          <mxGeometry x="320" y="20" width="160" height="1590" as="geometry" />
        </mxCell>
        <mxCell id="VxUJkpbcPx27rVq_6zqo-73" value="NO" style="edgeStyle=orthogonalEdgeStyle;rounded=0;orthogonalLoop=1;jettySize=auto;html=1;exitX=1;exitY=0.5;exitDx=0;exitDy=0;shadow=0;" edge="1" parent="VxUJkpbcPx27rVq_6zqo-1" source="VxUJkpbcPx27rVq_6zqo-3" target="VxUJkpbcPx27rVq_6zqo-26">
          <mxGeometry relative="1" as="geometry">
            <Array as="points">
              <mxPoint x="160" y="220" />
              <mxPoint x="160" y="390" />
              <mxPoint x="76" y="390" />
            </Array>
          </mxGeometry>
        </mxCell>
        <mxCell id="VxUJkpbcPx27rVq_6zqo-3" value="判断是否开启代理" style="rhombus;whiteSpace=wrap;html=1;shadow=0;fontFamily=Verdana;fontSize=8;fontColor=default;align=center;strokeColor=default;strokeWidth=1;fillColor=default;" vertex="1" parent="VxUJkpbcPx27rVq_6zqo-1">
          <mxGeometry x="26" y="190" width="120" height="60" as="geometry" />
        </mxCell>
        <mxCell id="VxUJkpbcPx27rVq_6zqo-77" style="edgeStyle=orthogonalEdgeStyle;rounded=0;orthogonalLoop=1;jettySize=auto;html=1;entryX=0.5;entryY=1;entryDx=0;entryDy=0;entryPerimeter=0;shadow=0;" edge="1" parent="VxUJkpbcPx27rVq_6zqo-1" source="VxUJkpbcPx27rVq_6zqo-4" target="VxUJkpbcPx27rVq_6zqo-26">
          <mxGeometry relative="1" as="geometry">
            <Array as="points">
              <mxPoint x="76" y="740" />
              <mxPoint x="76" y="740" />
            </Array>
          </mxGeometry>
        </mxCell>
        <mxCell id="VxUJkpbcPx27rVq_6zqo-4" value="知晓" style="rounded=1;whiteSpace=wrap;html=1;shadow=0;labelBackgroundColor=none;strokeWidth=1;fontFamily=Verdana;fontSize=8;align=center;" vertex="1" parent="VxUJkpbcPx27rVq_6zqo-1">
          <mxGeometry x="36" y="790" width="94" height="60" as="geometry" />
        </mxCell>
        <mxCell id="VxUJkpbcPx27rVq_6zqo-26" value="END" style="strokeWidth=2;html=1;shape=mxgraph.flowchart.terminator;whiteSpace=wrap;" vertex="1" parent="VxUJkpbcPx27rVq_6zqo-1">
          <mxGeometry x="26" y="530" width="100" height="60" as="geometry" />
        </mxCell>
        <mxCell id="VxUJkpbcPx27rVq_6zqo-30" style="edgeStyle=orthogonalEdgeStyle;rounded=0;orthogonalLoop=1;jettySize=auto;html=1;exitX=0.5;exitY=1;exitDx=0;exitDy=0;shadow=0;" edge="1" parent="1" source="VxUJkpbcPx27rVq_6zqo-15">
          <mxGeometry relative="1" as="geometry">
            <mxPoint x="470.13043478260875" y="420" as="targetPoint" />
          </mxGeometry>
        </mxCell>
        <mxCell id="VxUJkpbcPx27rVq_6zqo-33" value="YES" style="edgeLabel;html=1;align=center;verticalAlign=middle;resizable=0;points=[];" vertex="1" connectable="0" parent="VxUJkpbcPx27rVq_6zqo-30">
          <mxGeometry x="-0.3449" y="1" relative="1" as="geometry">
            <mxPoint as="offset" />
          </mxGeometry>
        </mxCell>
        <mxCell id="VxUJkpbcPx27rVq_6zqo-31" style="edgeStyle=orthogonalEdgeStyle;rounded=0;orthogonalLoop=1;jettySize=auto;html=1;exitX=0.5;exitY=1;exitDx=0;exitDy=0;shadow=0;" edge="1" parent="1" source="VxUJkpbcPx27rVq_6zqo-3">
          <mxGeometry relative="1" as="geometry">
            <mxPoint x="470" y="420" as="targetPoint" />
          </mxGeometry>
        </mxCell>
        <mxCell id="VxUJkpbcPx27rVq_6zqo-32" value="YES" style="edgeLabel;html=1;align=center;verticalAlign=middle;resizable=0;points=[];" vertex="1" connectable="0" parent="VxUJkpbcPx27rVq_6zqo-31">
          <mxGeometry x="0.1393" y="-1" relative="1" as="geometry">
            <mxPoint x="15" as="offset" />
          </mxGeometry>
        </mxCell>
        <mxCell id="VxUJkpbcPx27rVq_6zqo-59" style="edgeStyle=orthogonalEdgeStyle;rounded=0;orthogonalLoop=1;jettySize=auto;html=1;shadow=0;" edge="1" parent="1" source="VxUJkpbcPx27rVq_6zqo-57">
          <mxGeometry relative="1" as="geometry">
            <mxPoint x="610" y="895" as="targetPoint" />
          </mxGeometry>
        </mxCell>
        <mxCell id="VxUJkpbcPx27rVq_6zqo-60" value="通知" style="edgeLabel;html=1;align=center;verticalAlign=middle;resizable=0;points=[];" vertex="1" connectable="0" parent="VxUJkpbcPx27rVq_6zqo-59">
          <mxGeometry x="0.0031" y="-1" relative="1" as="geometry">
            <mxPoint as="offset" />
          </mxGeometry>
        </mxCell>
        <mxCell id="VxUJkpbcPx27rVq_6zqo-64" style="edgeStyle=orthogonalEdgeStyle;rounded=0;orthogonalLoop=1;jettySize=auto;html=1;exitX=0;exitY=0.5;exitDx=0;exitDy=0;shadow=0;" edge="1" parent="1" source="VxUJkpbcPx27rVq_6zqo-44">
          <mxGeometry relative="1" as="geometry">
            <mxPoint x="439.6923076923076" y="810" as="targetPoint" />
          </mxGeometry>
        </mxCell>
        <mxCell id="VxUJkpbcPx27rVq_6zqo-80" style="edgeStyle=orthogonalEdgeStyle;rounded=0;orthogonalLoop=1;jettySize=auto;html=1;shadow=0;" edge="1" parent="1" source="VxUJkpbcPx27rVq_6zqo-66">
          <mxGeometry relative="1" as="geometry">
            <mxPoint x="497" y="1370" as="targetPoint" />
          </mxGeometry>
        </mxCell>
        <mxCell id="VxUJkpbcPx27rVq_6zqo-81" style="edgeStyle=orthogonalEdgeStyle;rounded=0;orthogonalLoop=1;jettySize=auto;html=1;shadow=0;" edge="1" parent="1" source="VxUJkpbcPx27rVq_6zqo-78">
          <mxGeometry relative="1" as="geometry">
            <mxPoint x="660" y="930" as="targetPoint" />
          </mxGeometry>
        </mxCell>
        <mxCell id="VxUJkpbcPx27rVq_6zqo-82" value="通知" style="edgeLabel;html=1;align=center;verticalAlign=middle;resizable=0;points=[];" vertex="1" connectable="0" parent="VxUJkpbcPx27rVq_6zqo-81">
          <mxGeometry x="0.0889" y="2" relative="1" as="geometry">
            <mxPoint as="offset" />
          </mxGeometry>
        </mxCell>
      </root>
    </mxGraphModel>
  </diagram>
</mxfile>
